<svg width="40" height="43" viewBox="0 0 40 43" fill="none" xmlns="http://www.w3.org/2000/svg">
    <path fill-rule="evenodd" clip-rule="evenodd" d="M10.1595 8.60291C10.579 10.2534 11.2811 11.5785 12.4535 12.4742C12.9901 12.884 13.859 13.4596 14.9267 13.2805C17.4123 12.8644 18.5899 10.9943 19.1741 8.69266C20.0969 5.05596 18.3925 1.23765 15.9662 0.233504C15.5331 0.054469 15.0434 -0.00669327 14.425 0.000571234C14.2579 0.0247081 14.0906 0.0483761 13.9232 0.072513C13.5284 0.188042 13.1527 0.324661 12.83 0.520568C11.2351 1.48862 10.4541 3.23937 10.0342 5.39505C9.94252 5.86583 9.89941 6.55315 9.98049 7.0619C10.0702 7.62666 10.0325 8.10307 10.1595 8.60291ZM25.7512 13.6749C27.2709 13.988 28.4794 13.1756 29.2638 12.5459C30.5875 11.4836 31.4794 9.69212 31.8626 7.70727C32.3692 5.0808 30.5036 2.56564 29.0847 1.64961C28.5535 1.30677 27.9772 0.955501 27.0954 0.968624C26.9403 0.986668 26.7849 1.00448 26.6296 1.02229C26.3371 1.13571 26.0442 1.24936 25.7515 1.36278C24.1219 2.30459 22.7648 3.978 22.1492 5.91505C22.0084 6.35818 21.9679 6.82639 21.8807 7.34873C21.7689 8.01659 21.8401 8.96168 21.9521 9.53511C22.4206 11.9343 23.3781 13.1861 25.7512 13.6749ZM5.32066 22.7075C7.70506 22.3054 9.04548 21.2204 9.71147 19.1231C10.0508 18.054 10.2729 15.6963 9.92659 14.4098C9.34168 12.2366 7.37886 9.79898 4.60382 9.83952C4.40674 9.86365 4.20943 9.88732 4.01235 9.91122C3.666 9.98059 3.2859 10.1252 3.00868 10.2876C1.39666 11.2331 0.607876 13.0375 0.159117 15.1445C-0.482971 18.159 0.911579 20.9073 2.66818 22.0622C3.25379 22.4469 4.2188 22.8934 5.32066 22.7075ZM39.3537 17.2772C38.6026 14.7869 37.1303 13.0223 33.8338 13.0654C33.6307 13.0896 33.4277 13.1132 33.2245 13.1374C32.9494 13.2149 32.6748 13.2925 32.3999 13.3703C31.1595 13.8699 30.3844 14.9373 29.9625 16.2557C29.7427 16.943 29.7158 17.6953 29.5864 18.496V20.4494C29.7062 21.2096 29.6577 21.8592 29.855 22.4926C30.4633 24.4419 31.5631 25.1472 33.7441 25.5393C34.4312 25.6628 35.3784 25.6525 36.0202 25.4856C38.0107 24.968 38.9091 23.6418 39.3715 21.5965C39.5025 21.0186 39.4097 20.4344 39.5149 19.7865C39.6438 18.9951 39.5421 17.9012 39.3537 17.2772ZM32.8302 28.9442C31.8291 28.1451 30.9618 27.1827 30.0167 26.3276C29.3751 25.7469 28.6948 25.1022 28.1528 24.428C27.4289 23.5275 26.5996 22.6897 25.9483 21.7219C25.2502 20.6842 24.536 19.6143 23.529 18.8901C22.3639 18.0524 21.1833 17.4227 19.1204 17.4565C18.7089 17.6186 18.2098 17.5689 17.8121 17.6894C16.6617 18.0376 15.7771 18.6246 14.9445 19.2845C14.0744 19.974 13.5792 21.0151 12.9374 21.9368C12.3986 22.7106 11.7076 23.3484 11.1273 24.0695C10.8586 24.3502 10.5895 24.631 10.3207 24.9119C9.4776 25.5906 8.74576 26.4295 7.90143 27.0983C6.00071 28.6047 4.66733 29.6271 3.42111 31.8296C1.68935 34.8903 3.26106 39.4616 5.267 41.0771C5.95455 41.6308 6.79184 42.1026 7.77606 42.3496C8.2581 42.4707 8.80622 42.4217 9.35316 42.5108H10.2134C10.6223 42.5785 11.2143 42.5565 11.6112 42.493C11.8981 42.481 12.1847 42.4691 12.4715 42.4571C13.3184 42.3156 14.1592 42.3334 14.9625 42.1703C15.8842 41.9838 16.7836 41.8293 17.7404 41.6505C18.1287 41.6266 18.517 41.6027 18.9053 41.5788L20.0343 41.561C20.8901 41.703 21.7213 41.6836 22.5075 41.8478C23.3022 42.0627 24.0966 42.2779 24.8912 42.493C25.4766 42.6005 26.062 42.7081 26.6474 42.8154C29.0067 43.2754 31.823 42.8358 33.3143 41.9374C34.0433 41.4982 34.6629 40.9241 35.1424 40.2347C36.3335 38.5223 37.0649 34.9756 36.0204 32.5645C35.3127 30.9307 34.1265 29.9784 32.8302 28.9442ZM18.2062 39.0698C18.2062 39.0698 15.8488 39.0698 14.622 39.0698C13.7864 39.0698 12.3635 39.2029 11.6649 39.0161C9.55259 38.4511 8.3919 37.0643 7.93729 34.8224C7.82527 34.2703 7.76083 33.4829 7.86558 32.8511C7.93869 32.4096 7.98955 32.056 8.13437 31.704C8.83363 30.0037 10.1689 28.7368 12.2205 28.3886C13.3015 28.3827 14.3832 28.3766 15.4642 28.3706C15.4821 28.3647 15.5001 28.3586 15.5179 28.3527C15.5299 27.0566 15.5418 25.76 15.5538 24.4637C15.5835 24.4458 15.6135 24.428 15.6433 24.41C16.4855 24.4219 18.2137 24.4458 18.2137 24.4458L18.2062 39.0698ZM29.3357 39.0698C29.3357 39.0698 26.986 39.0698 25.7332 39.0698C23.6731 39.0698 21.7844 39.2788 20.7334 38.2454C19.7447 37.2738 19.8194 36.0508 19.8194 34.1053C19.8253 32.2896 19.8194 28.6215 19.8194 28.6215H22.5973V34.3743C22.5973 34.3743 22.5256 35.7993 22.7946 36.1846C23.1813 36.7388 24.1294 36.6326 25.0705 36.6326C25.5605 36.6268 26.5939 36.6146 26.5939 36.6146V28.6215H29.3359V39.0698H29.3357ZM10.7868 32.5284C10.2139 34.3715 10.9823 36.1119 12.4357 36.5607C12.8106 36.6765 13.3582 36.6326 13.8335 36.6326C14.8922 36.62 15.4106 36.6326 15.4106 36.6326V30.844C15.4106 30.844 13.6423 30.8318 12.7761 30.826C12.2287 30.9188 11.1229 31.4472 10.7868 32.5284Z" fill="white"/>
</svg>
