<svg width="36" height="48" viewBox="0 0 36 48" fill="none" xmlns="http://www.w3.org/2000/svg">
    <g clip-path="url(#clip0_1_82)">
        <path d="M17.5468 16.6468C17.5396 16.7044 17.5396 16.7698 17.5396 16.834C17.5396 17.0837 17.5891 17.3237 17.6785 17.5446L17.7584 17.7102L18.0743 18.524L19.7151 22.7388L21.1461 26.4195C21.5544 27.1625 22.2082 27.7458 22.9967 28.0567L23.2417 28.1473C23.2512 28.1503 23.2673 28.1503 23.2804 28.1539L27.2028 29.512V29.515L28.7023 30.0335L28.8048 30.0683C28.8084 30.0683 28.8144 30.0719 28.8179 30.0719C29.1136 30.147 29.4032 30.2478 29.6798 30.3708C30.3193 30.6487 30.8992 31.0448 31.3945 31.5279C31.5942 31.7199 31.7777 31.927 31.9476 32.1478C32.0922 32.3332 32.2244 32.5281 32.3433 32.7312C32.8666 33.6062 33.167 34.6348 33.167 35.7301C33.167 35.9257 33.1575 36.1148 33.1378 36.3068C33.1313 36.3914 33.1211 36.4731 33.1086 36.5541V36.5607C33.0955 36.6465 33.0794 36.7353 33.0633 36.8223C33.0466 36.907 33.0311 36.991 33.0121 37.075C33.0091 37.0846 33.0055 37.0948 33.0019 37.1044C32.9841 37.1896 32.9614 37.2737 32.9382 37.3583C32.9173 37.4381 32.8911 37.5203 32.8619 37.5977C32.8362 37.6825 32.8061 37.7658 32.7719 37.8474C32.7427 37.9314 32.7081 38.0166 32.6694 38.097C32.5633 38.3437 32.4369 38.5808 32.2951 38.807C32.1122 39.1042 31.9034 39.3844 31.671 39.6442C33.5115 37.6517 34.7351 35.0789 35.0397 32.2319C35.0909 31.7649 35.1172 31.2914 35.1172 30.8149C35.1172 30.5106 35.1041 30.2094 35.0844 29.9069C34.8525 26.4927 33.3089 23.4392 30.9529 21.2601C30.3032 20.6545 29.5934 20.1156 28.8299 19.6583L27.3875 18.9159L20.0786 15.1392C19.854 15.0422 19.612 14.9924 19.3676 14.9928C18.4211 14.9928 17.6398 15.7195 17.5468 16.6468Z" fill="white"/>
        <path d="M17.5468 16.6468C17.5396 16.7044 17.5396 16.7698 17.5396 16.834C17.5396 17.0837 17.5891 17.3237 17.6785 17.5446L17.7584 17.7102L18.0743 18.524L19.7151 22.7388L21.1461 26.4195C21.5544 27.1625 22.2082 27.7458 22.9967 28.0567L23.2417 28.1473C23.2512 28.1503 23.2673 28.1503 23.2804 28.1539L27.2028 29.512V29.515L28.7023 30.0335L28.8048 30.0683C28.8084 30.0683 28.8144 30.0719 28.8179 30.0719C29.1136 30.147 29.4032 30.2478 29.6798 30.3708C30.3193 30.6487 30.8992 31.0448 31.3945 31.5279C31.5942 31.7199 31.7777 31.927 31.9476 32.1478C32.0922 32.3332 32.2244 32.5281 32.3433 32.7312C32.8666 33.6062 33.167 34.6348 33.167 35.7301C33.167 35.9257 33.1575 36.1148 33.1378 36.3068C33.1313 36.3914 33.1211 36.4731 33.1086 36.5541V36.5607C33.0955 36.6465 33.0794 36.7353 33.0633 36.8223C33.0466 36.907 33.0311 36.991 33.0121 37.075C33.0091 37.0846 33.0055 37.0948 33.0019 37.1044C32.9841 37.1896 32.9614 37.2737 32.9382 37.3583C32.9173 37.4381 32.8911 37.5203 32.8619 37.5977C32.8362 37.6825 32.8061 37.7658 32.7719 37.8474C32.7427 37.9314 32.7081 38.0166 32.6694 38.097C32.5633 38.3437 32.4369 38.5808 32.2951 38.807C32.1122 39.1042 31.9034 39.3844 31.671 39.6442C33.5115 37.6517 34.7351 35.0789 35.0397 32.2319C35.0909 31.7649 35.1172 31.2914 35.1172 30.8149C35.1172 30.5106 35.1041 30.2094 35.0844 29.9069C34.8525 26.4927 33.3089 23.4392 30.9529 21.2601C30.3032 20.6545 29.5934 20.1156 28.8299 19.6583L27.3875 18.9159L20.0786 15.1392C19.854 15.0422 19.612 14.9924 19.3676 14.9928C18.4211 14.9928 17.6398 15.7195 17.5468 16.6468Z" fill="white"/>
        <path d="M4.53292 0C3.49288 0.0186044 2.65787 0.875608 2.65787 1.92346V35.475C2.66204 35.7091 2.67515 35.9401 2.69184 36.1748C2.70674 36.2984 2.72283 36.4269 2.74548 36.5517C3.2205 39.2445 5.54732 41.288 8.35692 41.288C9.34212 41.288 10.2659 41.0353 11.0741 40.596C11.0789 40.5924 11.0872 40.5876 11.0914 40.5876L11.3823 40.4106L12.5612 39.712L14.0607 38.816L14.0643 9.00514C14.0643 7.02407 13.0797 5.27765 11.5724 4.24001C11.5366 4.2184 11.5021 4.1956 11.4705 4.16979L5.63553 0.327678C5.33991 0.130831 4.9835 0.00720171 4.60146 0H4.53292Z" fill="white"/>
        <path d="M4.53292 0C3.49288 0.0186044 2.65787 0.875608 2.65787 1.92346V35.475C2.66204 35.7091 2.67515 35.9401 2.69184 36.1748C2.70674 36.2984 2.72283 36.4269 2.74548 36.5517C3.2205 39.2445 5.54732 41.288 8.35692 41.288C9.34212 41.288 10.2659 41.0353 11.0741 40.596C11.0789 40.5924 11.0872 40.5876 11.0914 40.5876L11.3823 40.4106L12.5612 39.712L14.0607 38.816L14.0643 9.00514C14.0643 7.02407 13.0797 5.27765 11.5724 4.24001C11.5366 4.2184 11.5021 4.1956 11.4705 4.16979L5.63553 0.327678C5.33991 0.130831 4.9835 0.00720171 4.60146 0H4.53292Z" fill="white"/>
        <path d="M27.6694 30.6517L14.2538 38.6588L14.0607 38.7758V38.8184L12.5612 39.7126L11.3829 40.413L11.0938 40.5888L11.0741 40.5984C10.2677 41.0395 9.34331 41.2892 8.35871 41.2892C5.54971 41.2892 3.21991 39.2469 2.74667 36.5529C2.97137 38.5237 3.63831 40.3584 4.64437 41.9566C6.7161 45.2495 10.2194 47.5403 14.2723 47.9382H16.7505C18.9427 47.7077 20.773 46.8237 22.6969 45.63L25.6555 43.808C26.9882 42.948 30.6054 40.8325 31.671 39.6454C31.9029 39.3856 32.1121 39.1071 32.2951 38.8088C32.4369 38.582 32.5633 38.3449 32.6694 38.0982C32.7051 38.0142 32.7391 37.9326 32.7719 37.8492C32.8029 37.7664 32.8321 37.683 32.8619 37.5983C32.9173 37.4363 32.9614 37.2737 33.0037 37.1062C33.0252 37.0108 33.0449 36.9166 33.0645 36.8229C33.1289 36.4695 33.1641 36.1064 33.1641 35.7301C33.1641 34.6348 32.8637 33.6062 32.3433 32.7324C32.2241 32.5283 32.093 32.3333 31.9476 32.149C31.7777 31.927 31.5942 31.7211 31.3945 31.5291C30.8992 31.046 30.3211 30.6499 29.6798 30.3714C29.4032 30.2484 29.1148 30.147 28.8179 30.0731C28.8144 30.0731 28.8084 30.0695 28.8048 30.0695L28.7023 30.0347L27.6694 30.6517Z" fill="white"/>
        <path d="M27.6694 30.6517L14.2538 38.6588L14.0607 38.7758V38.8184L12.5612 39.7126L11.3829 40.413L11.0938 40.5888L11.0741 40.5984C10.2677 41.0395 9.34331 41.2892 8.35871 41.2892C5.54971 41.2892 3.21991 39.2469 2.74667 36.5529C2.97137 38.5237 3.63831 40.3584 4.64437 41.9566C6.7161 45.2495 10.2194 47.5403 14.2723 47.9382H16.7505C18.9427 47.7077 20.773 46.8237 22.6969 45.63L25.6555 43.808C26.9882 42.948 30.6054 40.8325 31.671 39.6454C31.9029 39.3856 32.1121 39.1071 32.2951 38.8088C32.4369 38.582 32.5633 38.3449 32.6694 38.0982C32.7051 38.0142 32.7391 37.9326 32.7719 37.8492C32.8029 37.7664 32.8321 37.683 32.8619 37.5983C32.9173 37.4363 32.9614 37.2737 33.0037 37.1062C33.0252 37.0108 33.0449 36.9166 33.0645 36.8229C33.1289 36.4695 33.1641 36.1064 33.1641 35.7301C33.1641 34.6348 32.8637 33.6062 32.3433 32.7324C32.2241 32.5283 32.093 32.3333 31.9476 32.149C31.7777 31.927 31.5942 31.7211 31.3945 31.5291C30.8992 31.046 30.3211 30.6499 29.6798 30.3714C29.4032 30.2484 29.1148 30.147 28.8179 30.0731C28.8144 30.0731 28.8084 30.0695 28.8048 30.0695L28.7023 30.0347L27.6694 30.6517Z" fill="white"/>
        <path opacity="0.15" d="M33.1641 35.7301C33.1641 36.1064 33.1289 36.4701 33.0639 36.8235C33.0449 36.9172 33.0252 37.0108 33.0031 37.1056C32.9614 37.2737 32.9173 37.4363 32.8619 37.5989C32.8327 37.6829 32.8029 37.767 32.7719 37.8486C32.7397 37.9326 32.7051 38.0142 32.6688 38.0982C32.5625 38.3441 32.4378 38.5815 32.2957 38.8082C32.1129 39.1055 31.9039 39.3855 31.671 39.6448C30.6054 40.8325 26.9882 42.948 25.6555 43.808L22.6969 45.63C20.528 46.9756 18.479 47.928 15.8947 47.9934C15.7725 47.997 15.6527 48 15.5341 48C15.3672 48 15.2027 47.997 15.0376 47.9904C10.6617 47.8224 6.84544 45.4548 4.64437 41.9566C3.61445 40.3229 2.96563 38.4754 2.74667 36.5529C3.21991 39.2469 5.54971 41.2892 8.35871 41.2892C9.34331 41.2892 10.2677 41.0389 11.0741 40.5984L11.0938 40.5882L11.3829 40.413L12.5612 39.7126L14.0607 38.8184V38.7758L14.2538 38.6588L27.6694 30.6511L28.7023 30.0347L28.8048 30.0695C28.8078 30.0695 28.8144 30.0731 28.8179 30.0731C29.1148 30.147 29.4038 30.2484 29.6798 30.3714C30.3211 30.6499 30.8986 31.046 31.3945 31.5291C31.5941 31.7214 31.779 31.9287 31.9476 32.149C32.093 32.3333 32.2241 32.5283 32.3433 32.7324C32.8637 33.6062 33.1641 34.6348 33.1641 35.7301Z" fill="white"/>
        <path opacity="0.15" d="M33.1641 35.7301C33.1641 36.1064 33.1289 36.4701 33.0639 36.8235C33.0449 36.9172 33.0252 37.0108 33.0031 37.1056C32.9614 37.2737 32.9173 37.4363 32.8619 37.5989C32.8327 37.6829 32.8029 37.767 32.7719 37.8486C32.7397 37.9326 32.7051 38.0142 32.6688 38.0982C32.5625 38.3441 32.4378 38.5815 32.2957 38.8082C32.1129 39.1055 31.9039 39.3855 31.671 39.6448C30.6054 40.8325 26.9882 42.948 25.6555 43.808L22.6969 45.63C20.528 46.9756 18.479 47.928 15.8947 47.9934C15.7725 47.997 15.6527 48 15.5341 48C15.3672 48 15.2027 47.997 15.0376 47.9904C10.6617 47.8224 6.84544 45.4548 4.64437 41.9566C3.61445 40.3229 2.96563 38.4754 2.74667 36.5529C3.21991 39.2469 5.54971 41.2892 8.35871 41.2892C9.34331 41.2892 10.2677 41.0389 11.0741 40.5984L11.0938 40.5882L11.3829 40.413L12.5612 39.7126L14.0607 38.8184V38.7758L14.2538 38.6588L27.6694 30.6511L28.7023 30.0347L28.8048 30.0695C28.8078 30.0695 28.8144 30.0731 28.8179 30.0731C29.1148 30.147 29.4038 30.2484 29.6798 30.3714C30.3211 30.6499 30.8986 31.046 31.3945 31.5291C31.5941 31.7214 31.779 31.9287 31.9476 32.149C32.093 32.3333 32.2241 32.5283 32.3433 32.7324C32.8637 33.6062 33.1641 34.6348 33.1641 35.7301Z" fill="white"/>
    </g>
    <defs>
        <clipPath id="clip0_1_82">
            <rect width="36" height="48" fill="white"/>
        </clipPath>
    </defs>
</svg>
