<svg width="256" height="256" viewBox="0 0 256 256" fill="none" xmlns="http://www.w3.org/2000/svg">
<path fill-rule="evenodd" clip-rule="evenodd" d="M83.352 130.467L139.516 227.758L113.705 228L98.7108 201.862L83.6093 227.86L70.7847 227.855L64.2163 216.507L85.7314 179.512L70.4584 152.934L83.352 130.467Z" fill="#5277C3"/>
<path fill-rule="evenodd" clip-rule="evenodd" d="M103.624 90.3924L47.45 187.677L34.3348 165.445L49.474 139.391L19.4078 139.312L13 128.203L19.5433 116.84L62.3396 116.975L77.7202 90.4597L103.624 90.3924Z" fill="#7EBAE4"/>
<path fill-rule="evenodd" clip-rule="evenodd" d="M107.933 168.161L220.272 168.166L207.576 190.64L177.442 190.557L192.407 216.634L185.99 227.738L172.878 227.753L151.597 190.623L120.944 190.56L107.933 168.161Z" fill="#7EBAE4"/>
<path fill-rule="evenodd" clip-rule="evenodd" d="M173.318 125.533L117.154 28.2421L142.965 28L157.959 54.1383L173.061 28.1397L185.885 28.1447L192.454 39.4926L170.939 76.4877L186.212 103.066L173.318 125.533Z" fill="#7EBAE4"/>
<path fill-rule="evenodd" clip-rule="evenodd" d="M83.352 130.467L139.516 227.758L113.705 228L98.7108 201.862L83.6093 227.86L70.7847 227.855L64.2163 216.507L85.7314 179.512L70.4584 152.934L83.352 130.467Z" fill="#5277C3"/>
<path fill-rule="evenodd" clip-rule="evenodd" d="M148.587 87.5936L36.2492 87.5881L48.945 65.114L79.0787 65.1975L64.114 39.1199L70.5308 28.0161L83.6425 28.0017L104.924 65.1318L135.577 65.194L148.587 87.5936Z" fill="#5277C3"/>
<path fill-rule="evenodd" clip-rule="evenodd" d="M152.97 165.587L209.144 68.3019L222.259 90.5338L207.12 116.589L237.186 116.668L243.594 127.777L237.051 139.139L194.254 139.004L178.874 165.52L152.97 165.587Z" fill="#5277C3"/>
</svg>

